  Duration: 00:00:07.01, start: 0.000000, bitrate: 934 kb/s
  Stream #0:0[0x1](und): Video: h264 (High) (avc1 / 0x31637661), yuv420p(tv, bt709, progressive), 640x360, 793 kb/s, 29.97 fps, 29.97 tbr, 30k tbn (default)
  Stream #0:1[0x2](und): Audio: aac (LC) (mp4a / 0x6134706D), 48000 Hz, stereo, fltp, 130 kb/s (default)
